<svg xmlns="http://www.w3.org/2000/svg" xmlns:xlink="http://www.w3.org/1999/xlink" id="Layer_1" x="0px" y="0px" viewBox="0 0 595 140" style="enable-background:new 0 0 595 140;" xml:space="preserve">
<style type="text/css">
	.st0{fill:#231F20;}
	.st1{fill:#78A12F;}
</style>
<g>
	<g>
		<g>
			<path class="st0" d="M434,110.8h10.9c1.6,0,3.1,0.2,4.4,0.7c1.3,0.4,2.4,1.1,3.3,1.9c0.9,0.8,1.6,1.8,2.1,2.9     c0.5,1.1,0.7,2.4,0.7,3.8v0.1c0,1.6-0.3,2.9-0.9,4.1c-0.6,1.2-1.4,2.2-2.4,3c-1,0.8-2.2,1.4-3.5,1.8c-1.4,0.4-2.8,0.6-4.3,0.6     h-5.5v8.9H434V110.8z M444.5,125.2c1.9,0,3.3-0.5,4.4-1.4c1.1-0.9,1.6-2.1,1.6-3.6v-0.1c0-1.6-0.5-2.9-1.6-3.7     c-1.1-0.8-2.5-1.3-4.4-1.3h-5.7v10H444.5z"></path>
		</g>
		<g>
			<path class="st0" d="M460.5,110.8H481v4.4h-15.7v7.1h13.9v4.4h-13.9v7.4h15.9v4.4h-20.7V110.8z"></path>
		</g>
		<g>
			<path class="st0" d="M500.3,139c-2.1,0-4.1-0.4-5.9-1.1c-1.8-0.8-3.3-1.8-4.6-3.1c-1.3-1.3-2.3-2.8-3-4.5     c-0.7-1.7-1.1-3.6-1.1-5.5v-0.1c0-2,0.4-3.8,1.1-5.5c0.7-1.7,1.7-3.2,3-4.6c1.3-1.3,2.8-2.3,4.6-3.1c1.8-0.8,3.7-1.1,5.9-1.1     c2.1,0,4.1,0.4,5.9,1.1c1.8,0.8,3.3,1.8,4.6,3.1c1.3,1.3,2.3,2.8,3,4.5c0.7,1.7,1.1,3.6,1.1,5.5v0.1c0,2-0.4,3.8-1.1,5.5     c-0.7,1.7-1.7,3.2-3,4.6c-1.3,1.3-2.8,2.3-4.6,3.1C504.4,138.6,502.4,139,500.3,139z M500.3,134.5c1.4,0,2.6-0.3,3.8-0.8     c1.1-0.5,2.1-1.2,2.9-2.1c0.8-0.9,1.5-1.9,1.9-3.1c0.5-1.2,0.7-2.5,0.7-3.8v-0.1c0-1.3-0.2-2.6-0.7-3.8c-0.5-1.2-1.1-2.2-1.9-3.1     c-0.8-0.9-1.8-1.6-3-2.1c-1.2-0.5-2.4-0.8-3.8-0.8c-1.4,0-2.6,0.3-3.8,0.8c-1.1,0.5-2.1,1.2-2.9,2.1c-0.8,0.9-1.5,1.9-1.9,3.1     c-0.5,1.2-0.7,2.5-0.7,3.8v0.1c0,1.3,0.2,2.6,0.7,3.8c0.5,1.2,1.1,2.2,1.9,3.1c0.8,0.9,1.8,1.6,3,2.1     C497.7,134.3,499,134.5,500.3,134.5z"></path>
		</g>
		<g>
			<path class="st0" d="M520.7,110.8h10.9c1.6,0,3.1,0.2,4.4,0.7c1.3,0.4,2.4,1.1,3.3,1.9c0.9,0.8,1.6,1.8,2.1,2.9     c0.5,1.1,0.7,2.4,0.7,3.8v0.1c0,1.6-0.3,2.9-0.9,4.1c-0.6,1.2-1.4,2.2-2.4,3c-1,0.8-2.2,1.4-3.5,1.8c-1.4,0.4-2.8,0.6-4.3,0.6     h-5.5v8.9h-4.8V110.8z M531.2,125.2c1.9,0,3.3-0.5,4.4-1.4c1.1-0.9,1.6-2.1,1.6-3.6v-0.1c0-1.6-0.5-2.9-1.6-3.7     c-1.1-0.8-2.5-1.3-4.4-1.3h-5.7v10H531.2z"></path>
		</g>
		<g>
			<path class="st0" d="M547.2,110.8h4.8v23.3h14.6v4.4h-19.4V110.8z"></path>
		</g>
		<g>
			<path class="st0" d="M571.7,110.8h20.5v4.4h-15.7v7.1h13.9v4.4h-13.9v7.4h15.9v4.4h-20.7V110.8z"></path>
		</g>
	</g>
	<g>
		<g>
			<path class="st0" d="M412.1,89c-5.9,3.2-12.7,5-19.8,5c-23.8,0-43.2-20.1-43.2-45c0-24.8,19.3-45,43.2-45     c18.9,0,35,12.7,40.8,30.4h-17.8c-4.7-8.4-13.3-14-23.1-14c-14.8,0-26.8,12.8-26.8,28.6c0,15.8,12,28.6,26.8,28.6     c7.9,0,14.9-3.6,19.8-9.4V89z"></path>
		</g>
		<g>
			<path class="st0" d="M32.1,91.3H-0.4V4.1h32.5c27.4,0,46.4,18.8,46.4,43.5C78.5,72.2,59.5,91.3,32.1,91.3z M32.1,18H14.9v59.3     h17.2c18.3,0,30.3-12.3,30.3-29.5C62.4,30.6,50.4,18,32.1,18z"></path>
		</g>
		<g>
			<path class="st0" d="M235,53.5c0,26.1-14.7,39.1-37.5,39.1c-22.7,0-37.1-13.1-37.1-38.4v-35l15.3-15.3v49.6     c0,16.2,8.4,24.9,22.1,24.9c13.6,0,21.9-8.2,21.9-24.3v-35L235,4.1V53.5z"></path>
		</g>
		<g>
			<path class="st0" d="M317,15.2l15.1-15.1v91.2h-12.8l-48.1-62.1v62.1h-15.1V4.1h14.2L317,64.4V15.2z"></path>
		</g>
		<g>
			<path class="st0" d="M452.3,19.3l15.3-15.3v73.3h45.9v14h-61.2V19.3z"></path>
		</g>
		<g>
			<path class="st0" d="M580.4,17.8h-35.7v22.7h43.8v13.7h-43.8v23.4h50v13.7h-65.3V4.1h64.7L580.4,17.8z"></path>
		</g>
		<g>
			<polygon class="st0" points="432.5,75.9 432.5,48.7 405.3,48.7 389.7,64.3 416.8,64.3 416.8,91.6    "></polygon>
		</g>
		<g>
			<g>
				<polygon class="st1" points="140.7,31.2 140.7,4.1 113.5,4.1 97.9,19.7 125,19.7 125,47     "></polygon>
			</g>
			<g>
				<path class="st0" d="M125,52.4l15.7-15.7v25c0,20.7-12.1,30.9-29.3,30.9c-13.5,0-22.2-6.2-27.9-14.1l10.1-10.3      c5.1,6.5,10.2,10.2,17.6,10.2c8.2,0,13.8-5.5,13.8-17.1V52.4z"></path>
			</g>
		</g>
	</g>
</g>
</svg>