<svg width="128" height="128" viewBox="0 0 16 16" fill="none" xmlns="http://www.w3.org/2000/svg">
<rect width="16" height="16" rx="4" fill="#0A66C2"/>
<path d="M5.24597 12.9999H3.1406V6.68383H5.24597V12.9999ZM4.19329 5.4557C3.952 5.4488 3.71809 5.37096 3.5208 5.23188C3.3235 5.09281 3.17156 4.89868 3.08396 4.67375C2.99637 4.44882 2.977 4.20306 3.02827 3.96719C3.07955 3.73131 3.1992 3.51577 3.37227 3.34751C3.54534 3.17924 3.76417 3.06571 4.00139 3.0211C4.23862 2.97648 4.48373 3.00277 4.70611 3.09667C4.92848 3.19056 5.11826 3.34791 5.25172 3.54904C5.38518 3.75018 5.45641 3.98618 5.45651 4.22757C5.45097 4.55766 5.31498 4.87213 5.07828 5.10226C4.84157 5.33239 4.5234 5.45946 4.19329 5.4557ZM12.9657 12.9999H10.8603V9.67346C10.8603 8.67692 10.4392 8.319 9.89182 8.319C9.73133 8.32969 9.57452 8.37197 9.43042 8.44344C9.28632 8.5149 9.15776 8.61412 9.05211 8.73541C8.94647 8.85671 8.86584 8.99768 8.81483 9.15022C8.76383 9.30277 8.74347 9.46389 8.75492 9.62433C8.75143 9.65699 8.75143 9.68992 8.75492 9.72258V12.9999H6.64955V6.68383H8.68474V7.59616C8.89003 7.28386 9.17208 7.02952 9.50386 6.85748C9.83564 6.68545 10.206 6.60149 10.5796 6.61365C11.6673 6.61365 12.9376 7.21719 12.9376 9.1822L12.9657 12.9999Z" fill="white"/>
</svg>
