<svg width="1782" height="304" viewBox="0 0 1782 304" fill="none" xmlns="http://www.w3.org/2000/svg">
<path d="M197.954 49.214C197.954 80.374 223.337 105.578 254.354 105.578C277.84 105.578 297 124.667 297 148.143V154.805C297 178.312 277.987 197.37 254.532 197.37C223.269 197.37 197.954 222.87 197.954 254.177C197.954 277.794 178.85 297 155.314 297H149.379C125.832 297 106.745 277.868 106.745 254.263C106.745 222.827 81.228 197.37 49.904 197.37C26.24 197.37 7 178.139 7 154.455V148.493C7 124.858 26.454 105.578 50.168 105.578C81.154 105.578 106.745 80.404 106.745 49.214C106.745 25.899 125.598 7 148.858 7H155.842C179.095 7 197.954 25.899 197.954 49.214Z" stroke="url(#paint0_linear_105_104)" stroke-width="13.6844"/>
<path d="M197.954 49.214C197.954 80.374 223.337 105.578 254.354 105.578C277.84 105.578 297 124.667 297 148.143V154.805C297 178.312 277.987 197.37 254.532 197.37C223.269 197.37 197.954 222.87 197.954 254.177C197.954 277.794 178.85 297 155.314 297H149.379C125.832 297 106.745 277.868 106.745 254.263C106.745 222.827 81.228 197.37 49.904 197.37C26.24 197.37 7 178.139 7 154.455V148.493C7 124.858 26.454 105.578 50.168 105.578C81.154 105.578 106.745 80.404 106.745 49.214C106.745 25.899 125.598 7 148.858 7H155.842C179.095 7 197.954 25.899 197.954 49.214Z" stroke="url(#paint1_linear_105_104)" stroke-width="13.6844"/>
<path d="M197.954 49.214C197.954 80.374 223.337 105.578 254.354 105.578C277.84 105.578 297 124.667 297 148.143V154.805C297 178.312 277.987 197.37 254.532 197.37C223.269 197.37 197.954 222.87 197.954 254.177C197.954 277.794 178.85 297 155.314 297H149.379C125.832 297 106.745 277.868 106.745 254.263C106.745 222.827 81.228 197.37 49.904 197.37C26.24 197.37 7 178.139 7 154.455V148.493C7 124.858 26.454 105.578 50.168 105.578C81.154 105.578 106.745 80.404 106.745 49.214C106.745 25.899 125.598 7 148.858 7H155.842C179.095 7 197.954 25.899 197.954 49.214Z" stroke="url(#paint2_linear_105_104)" stroke-width="13.6844"/>
<path d="M197.954 49.214C197.954 80.374 223.337 105.578 254.354 105.578C277.84 105.578 297 124.667 297 148.143V154.805C297 178.312 277.987 197.37 254.532 197.37C223.269 197.37 197.954 222.87 197.954 254.177C197.954 277.794 178.85 297 155.314 297H149.379C125.832 297 106.745 277.868 106.745 254.263C106.745 222.827 81.228 197.37 49.904 197.37C26.24 197.37 7 178.139 7 154.455V148.493C7 124.858 26.454 105.578 50.168 105.578C81.154 105.578 106.745 80.404 106.745 49.214C106.745 25.899 125.598 7 148.858 7H155.842C179.095 7 197.954 25.899 197.954 49.214Z" stroke="url(#paint3_linear_105_104)" stroke-width="13.6844"/>
<path d="M111.987 46.746C133.97 68.776 169.694 68.61 191.634 46.617C195.639 42.602 200.249 39.55 205.173 37.464C220.661 30.902 239.245 33.894 251.814 46.494L256.508 51.2C273.091 67.828 273.091 94.78 256.508 111.402C234.403 133.561 234.483 169.538 256.57 191.672C273.232 208.374 273.269 235.498 256.631 252.182L252.433 256.384C235.784 273.08 208.787 273.08 192.137 256.384C169.958 234.157 133.964 234.243 111.815 256.452C95.0799 273.222 67.9109 273.258 51.1999 256.513L46.9959 252.299C30.3219 235.584 30.4809 208.159 47.2479 191.352C69.1569 169.39 69.4999 133.451 47.4929 111.396C31.0459 94.909 31.0459 68.179 47.4929 51.692L52.4329 46.746C68.8809 30.259 95.5399 30.259 111.987 46.746Z" stroke="#D9D9D9" stroke-width="13.6844"/>
<path d="M111.987 46.746C133.97 68.776 169.694 68.61 191.634 46.617C195.639 42.602 200.249 39.55 205.173 37.464C220.661 30.902 239.245 33.894 251.814 46.494L256.508 51.2C273.091 67.828 273.091 94.78 256.508 111.402C234.403 133.561 234.483 169.538 256.57 191.672C273.232 208.374 273.269 235.498 256.631 252.182L252.433 256.384C235.784 273.08 208.787 273.08 192.137 256.384C169.958 234.157 133.964 234.243 111.815 256.452C95.0799 273.222 67.9109 273.258 51.1999 256.513L46.9959 252.299C30.3219 235.584 30.4809 208.159 47.2479 191.352C69.1569 169.39 69.4999 133.451 47.4929 111.396C31.0459 94.909 31.0459 68.179 47.4929 51.692L52.4329 46.746C68.8809 30.259 95.5399 30.259 111.987 46.746Z" stroke="url(#paint4_linear_105_104)" stroke-width="13.6844"/>
<path d="M272.764 200.406L269.662 187.653C269.621 187.486 269.452 187.386 269.287 187.432C267.353 187.972 256.571 190.907 251.084 190.907C246.576 190.907 244.237 191.335 243.34 191.553C243.128 191.604 243.063 191.853 243.212 192.012L254.36 203.857C254.411 203.91 254.478 203.943 254.551 203.95C259.038 204.327 265.979 202.497 265.981 202.497L272.547 200.769C272.706 200.727 272.803 200.566 272.764 200.406Z" fill="url(#paint5_linear_105_104)"/>
<path d="M115.751 267.195C118.456 274.181 111.655 269.041 111.655 269.041C111.655 269.041 109.768 270.544 105.238 272.23C100.708 273.915 99.1909 251.673 100.708 251.252C102.225 250.83 109.439 237.845 111.603 240.731C113.767 243.616 113.046 260.208 115.751 267.195Z" fill="url(#paint6_linear_105_104)"/>
<path d="M38.8932 113.968C37.5942 112.802 35.8722 109.437 35.8722 109.437C32.8512 106.002 32.2482 102.945 32.8522 101.883C33.4552 100.822 40.9052 99.337 47.9562 98.863C55.0062 98.388 62.5472 110.879 59.6612 111.601C56.7762 112.322 41.5082 113.968 38.8932 113.968Z" fill="url(#paint7_linear_105_104)"/>
<path d="M188.622 34.504H195.183L200.334 29.053C201.546 29.052 204.865 39.469 204.865 53.219C198.824 54.73 191.677 58.218 191.677 58.218L188.622 34.504Z" fill="url(#paint8_linear_105_104)"/>
<path d="M1495.58 64.56C1507.71 60.185 1517.19 50.305 1521.28 37.777L1521.49 37.121C1524.86 49.671 1534.35 59.515 1546.53 63.096L1547.13 63.275L1544.11 64.587C1533.03 69.431 1524.69 79.209 1521.49 91.143C1517 79.271 1507.97 69.811 1496.5 64.953L1495.58 64.56Z" fill="url(#paint9_linear_105_104)"/>
<path d="M1495.58 64.56C1507.71 60.185 1517.19 50.305 1521.28 37.777L1521.49 37.121C1524.86 49.671 1534.35 59.515 1546.53 63.096L1547.13 63.275L1544.11 64.587C1533.03 69.431 1524.69 79.209 1521.49 91.143C1517 79.271 1507.97 69.811 1496.5 64.953L1495.58 64.56Z" fill="url(#paint10_linear_105_104)"/>
<path d="M1536.15 35.072C1541.98 32.871 1546.55 27.901 1548.51 21.6L1548.61 21.27C1550.23 27.582 1554.8 32.534 1560.66 34.335L1560.94 34.425L1559.49 35.086C1554.16 37.522 1550.15 42.44 1548.61 48.443C1546.45 42.472 1542.11 37.713 1536.59 35.27L1536.15 35.072Z" fill="url(#paint11_linear_105_104)"/>
<path d="M1536.15 35.072C1541.98 32.871 1546.55 27.901 1548.51 21.6L1548.61 21.27C1550.23 27.582 1554.8 32.534 1560.66 34.335L1560.94 34.425L1559.49 35.086C1554.16 37.522 1550.15 42.44 1548.61 48.443C1546.45 42.472 1542.11 37.713 1536.59 35.27L1536.15 35.072Z" fill="url(#paint12_linear_105_104)"/>
<path d="M362 190.283H384.294C386.391 209.666 404.617 222.468 429.991 222.468C454.007 222.468 471.498 209.666 471.498 192.026C471.498 176.863 461.027 167.547 437.133 161.333L414.348 155.369C381.584 146.916 367.05 132.383 367.05 108.026C367.05 78.208 392.915 57.332 429.869 57.332C465.217 57.332 490.833 78.453 491.821 108.522H469.649C467.679 89.267 452.284 77.462 429.13 77.462C406.096 77.462 390.084 89.512 390.084 107.03C390.084 120.578 399.936 128.652 424.079 134.989L442.675 139.961C479.502 149.277 494.405 163.571 494.405 189.291C494.405 222.095 468.788 242.598 427.899 242.598C390.205 242.598 364.097 221.967 362 190.283ZM622.129 110.388V239.613H601.811V218.615H601.314C593.681 233.527 580.378 241.851 560.673 241.851C532.711 241.851 516.329 223.582 516.329 194.258V110.388H537.761V190.405C537.761 211.409 547.492 222.713 567.324 222.713C588.139 222.713 600.702 208.302 600.702 186.307V110.388H622.129ZM712.165 108.149C744.808 108.149 766.975 134.493 766.975 174.997C766.975 215.507 744.929 241.851 712.661 241.851C694.309 241.851 679.527 232.781 671.888 218.615H671.397V282.729H649.97V110.388H670.287V132.255H670.784C678.666 117.721 693.569 108.149 712.165 108.149ZM707.981 222.841C730.766 222.841 745.051 204.326 745.051 174.997C745.051 145.802 730.766 127.16 707.981 127.16C686.057 127.16 671.275 146.298 671.275 174.997C671.275 203.825 686.057 222.841 707.981 222.841ZM840.016 126.914C819.935 126.914 805.899 142.445 804.541 163.939H874.133C873.641 142.322 860.212 126.914 840.016 126.914ZM873.641 202.583H894.699C891.006 225.202 869.331 241.851 841.368 241.851C804.663 241.851 782.374 216.131 782.374 175.499C782.374 135.362 805.032 108.149 840.386 108.149C874.994 108.149 896.299 133.496 896.299 172.642V180.839H804.42V182.08C804.42 206.81 818.831 223.086 841.859 223.086C858.12 223.086 870.065 214.761 873.641 202.583ZM917.98 239.613V110.388H938.18V131.508H938.67C942.86 117.22 954.68 108.149 969.71 108.149C973.4 108.149 976.6 108.773 978.33 109.023V130.022C976.6 129.398 972.05 128.78 966.88 128.78C950.25 128.78 939.41 140.83 939.41 159.094V239.613H917.98ZM1021.07 239.613H999.15V60.311H1020.7L1118 201.096H1119.11V60.311H1141.03V239.613H1119.48L1022.18 99.329H1021.07V239.613ZM1225.28 241.851C1189.81 241.851 1165.92 216.131 1165.92 174.997C1165.92 133.747 1189.81 108.149 1225.28 108.149C1260.63 108.149 1284.53 133.747 1284.53 174.997C1284.53 216.131 1260.63 241.851 1225.28 241.851ZM1225.28 222.841C1247.94 222.841 1262.73 205.445 1262.73 174.997C1262.73 144.555 1247.94 127.16 1225.28 127.16C1202.62 127.16 1187.71 144.555 1187.71 174.997C1187.71 205.445 1202.62 222.841 1225.28 222.841ZM1306.2 239.613V110.388H1326.4V131.013H1326.9C1332.93 117.348 1345.98 108.149 1363.23 108.149C1380.72 108.149 1393.65 117.097 1399.19 132.756H1399.69C1406.83 117.348 1421.86 108.149 1439.84 108.149C1465.21 108.149 1481.59 124.799 1481.59 150.396V239.613H1460.16V155.369C1460.16 137.723 1450.43 127.288 1433.56 127.288C1416.56 127.288 1404.61 139.961 1404.61 157.479V239.613H1383.18V153.008C1383.18 137.478 1372.84 127.288 1356.94 127.288C1339.95 127.288 1327.64 140.707 1327.64 158.599V239.613H1306.2ZM1510.04 239.613V110.388H1531.48V239.613H1510.04ZM1666.84 152.757H1645.9C1642.82 138.719 1631.98 127.16 1613.14 127.16C1590.97 127.16 1575.94 145.674 1575.94 174.997C1575.94 205.072 1591.21 222.841 1613.38 222.841C1630.87 222.841 1642.33 213.519 1646.02 197.989H1667.08C1663.76 223.71 1642.33 241.851 1613.26 241.851C1577.79 241.851 1554.14 216.627 1554.14 174.997C1554.14 134.242 1577.66 108.149 1613.01 108.149C1645.04 108.149 1664.13 129.52 1666.84 152.757ZM1684.57 146.047C1684.57 123.93 1704.16 108.149 1732.36 108.149C1758.85 108.149 1778.3 124.058 1779.29 145.925H1758.85C1757.37 133.496 1747.39 125.795 1731.62 125.795C1715.98 125.795 1705.64 133.624 1705.64 144.928C1705.64 153.877 1712.41 159.84 1726.94 163.571L1746.77 168.416C1772.64 174.997 1782 184.441 1782 203.452C1782 225.943 1760.94 241.851 1731 241.851C1702.93 241.851 1683.34 226.444 1681.12 203.58H1702.56C1704.9 217 1715 224.205 1732.36 224.205C1749.73 224.205 1760.45 216.749 1760.45 205.072C1760.45 195.873 1755.15 190.906 1740.74 187.053L1718.2 181.212C1695.66 175.37 1684.57 163.694 1684.57 146.047Z" fill="url(#paint13_linear_105_104)"/>
<defs>
<linearGradient id="paint0_linear_105_104" x1="297" y1="152" x2="7" y2="152" gradientUnits="userSpaceOnUse">
<stop stop-color="#202020"/>
<stop offset="1" stop-color="#868686"/>
</linearGradient>
<linearGradient id="paint1_linear_105_104" x1="276.62" y1="23.397" x2="7" y2="297" gradientUnits="userSpaceOnUse">
<stop stop-color="#FFB700"/>
<stop offset="0.456619" stop-color="#7300FF"/>
<stop offset="1" stop-color="#FF009D"/>
</linearGradient>
<linearGradient id="paint2_linear_105_104" x1="7" y1="151.279" x2="297" y2="151.279" gradientUnits="userSpaceOnUse">
<stop stop-color="#3F81BD"/>
<stop offset="0.5" stop-color="#B95FA5"/>
<stop offset="1" stop-color="#EB591E"/>
</linearGradient>
<linearGradient id="paint3_linear_105_104" x1="152" y1="7" x2="139.5" y2="857" gradientUnits="userSpaceOnUse">
<stop stop-color="#FF5720"/>
<stop offset="0.333209" stop-color="#FA3966"/>
</linearGradient>
<linearGradient id="paint4_linear_105_104" x1="151.834" y1="34.086" x2="151.834" y2="269.051" gradientUnits="userSpaceOnUse">
<stop stop-color="#7A75B1"/>
<stop offset="1" stop-color="#438ED1"/>
</linearGradient>
<linearGradient id="paint5_linear_105_104" x1="272" y1="193.999" x2="235.979" y2="196.564" gradientUnits="userSpaceOnUse">
<stop stop-color="#FC424F"/>
<stop offset="1" stop-color="#FC424E"/>
</linearGradient>
<linearGradient id="paint6_linear_105_104" x1="108" y1="272.165" x2="103.418" y2="240.518" gradientUnits="userSpaceOnUse">
<stop stop-color="#FB3E5A"/>
<stop offset="1" stop-color="#FB3E5A"/>
</linearGradient>
<linearGradient id="paint7_linear_105_104" x1="59.3692" y1="105.053" x2="35.1532" y2="109.359" gradientUnits="userSpaceOnUse">
<stop stop-color="#FD4C39"/>
<stop offset="1" stop-color="#FD4C3A"/>
</linearGradient>
<linearGradient id="paint8_linear_105_104" x1="199.229" y1="55.035" x2="194.401" y2="29.349" gradientUnits="userSpaceOnUse">
<stop stop-color="#FE512B"/>
<stop offset="1" stop-color="#FF5425"/>
</linearGradient>
<linearGradient id="paint9_linear_105_104" x1="1490.5" y1="65" x2="1538" y2="28" gradientUnits="userSpaceOnUse">
<stop stop-color="#FF5720"/>
<stop offset="1" stop-color="#438ED1"/>
</linearGradient>
<linearGradient id="paint10_linear_105_104" x1="1495.58" y1="56.206" x2="1603.5" y2="-59.0001" gradientUnits="userSpaceOnUse">
<stop stop-color="#FF5720"/>
<stop offset="0.230861" stop-color="#FA3966"/>
<stop offset="0.467637" stop-color="#438ED1"/>
</linearGradient>
<linearGradient id="paint11_linear_105_104" x1="1490.5" y1="65" x2="1538" y2="28.0001" gradientUnits="userSpaceOnUse">
<stop stop-color="#FF5720"/>
<stop offset="1" stop-color="#438ED1"/>
</linearGradient>
<linearGradient id="paint12_linear_105_104" x1="1495.58" y1="56.206" x2="1603.5" y2="-58.9997" gradientUnits="userSpaceOnUse">
<stop stop-color="#FF5720"/>
<stop offset="0.230861" stop-color="#FA3966"/>
<stop offset="0.467637" stop-color="#438ED1"/>
</linearGradient>
<linearGradient id="paint13_linear_105_104" x1="362" y1="170.03" x2="1782" y2="170.03" gradientUnits="userSpaceOnUse">
<stop stop-color="#FF5720"/>
<stop offset="0.230861" stop-color="#FA3966"/>
<stop offset="0.467637" stop-color="#438ED1"/>
</linearGradient>
</defs>
</svg>
