<svg width="1187" height="223" viewBox="0 0 1187 223" fill="none" xmlns="http://www.w3.org/2000/svg">
<path d="M725.785 37.6003C735.628 37.274 745.587 37.5644 755.44 37.564L813.418 37.5638L851.77 37.5658C859.776 37.5662 867.816 37.3761 875.811 37.8008C877.424 37.8864 879.097 37.8212 880.698 38.0089C881.145 38.0615 881.56 38.2685 882.012 38.3374C884.763 38.7558 887.454 39.1297 890.177 39.7379C894.649 40.7371 900.784 42.9546 904.461 45.6974C906.736 47.3942 908.736 49.5141 910.823 51.4379C911.019 52.9764 912.883 54.9073 913.648 56.3966C915.348 59.7095 916.544 63.4486 917.376 67.0679C919.875 77.9353 919.957 95.9051 917.206 106.84C916.987 107.707 916.924 109.38 916.441 110.084C915.428 111.563 915.076 113.333 914.161 114.866C912.403 117.808 909.926 120.895 907.154 122.958C903.686 125.539 893.328 129.19 888.908 130.338C888.421 130.464 887.336 130.679 887.101 131.076C887.814 131.625 890.308 131.763 891.293 131.96C894.91 132.681 898.808 133.539 902.19 134.98C908.411 137.631 912.544 140.352 915.119 146.805C916.325 149.827 916.928 153.161 917.236 156.391C917.559 159.773 917.653 188.394 917.11 189.646H910.241H869.768C870.256 188.867 870.107 187.501 870.109 186.601C870.123 179.781 870.924 158.976 866.389 154.58C863.757 152.026 858.727 151.244 855.246 150.86C851.768 150.477 848.155 150.64 844.658 150.641L827.837 150.646L772.197 150.647C772.214 150.678 772.234 150.71 772.25 150.742C772.68 151.596 772.778 188.157 772.273 189.646H725.718C726.329 187.629 725.932 166.097 725.932 161.812L725.93 75.0956L725.932 49.3089C725.934 45.9842 726.325 40.6034 725.785 37.6003ZM772.197 113.595L827.132 113.59L843.386 113.601C848.167 113.606 852.98 113.669 857.744 113.199C861.037 112.874 863.738 112.318 866.655 110.8C867.002 110.618 867.407 110.541 867.679 110.244C867.92 109.979 867.987 109.887 867.979 109.54C868.827 109.3 868.987 108.885 869.426 108.122C872.639 102.55 872.87 88.695 871.072 82.6544C870.354 80.2504 869.091 78.605 866.867 77.424C863.624 75.7021 859.269 74.9418 855.647 74.6591C850.08 74.2244 844.21 74.5806 838.618 74.5816L805.065 74.5878L783.048 74.5851C779.606 74.5782 775.617 74.1834 772.232 74.6909C772.373 75 772.471 75.2962 772.492 75.6369C772.688 79.1094 772.729 112.257 772.32 113.311C772.283 113.407 772.242 113.502 772.197 113.595Z" fill="black"/>
<path d="M560.841 37.6003C565.211 37.3987 569.648 37.5636 574.027 37.5616L599.634 37.5538L614.435 37.555C617.298 37.5561 620.675 37.2243 623.469 37.8813C624.55 38.9088 631.063 51.5378 632.424 54.0221L664.195 112.082C667.011 117.162 669.799 122.258 672.556 127.37C673.697 129.452 675.187 131.587 676.088 133.772C677.034 136.063 678.553 138.292 679.759 140.474L687.041 153.769C690.562 160.217 693.895 166.867 697.648 173.176C697.922 173.637 698.324 173.984 698.592 174.425C699.205 175.438 699.299 176.55 699.998 177.618C700.53 178.431 706.303 188.662 706.34 188.837C706.358 188.916 706.264 189.191 706.244 189.285C705.764 189.619 705.269 189.686 704.697 189.708C699.779 189.891 694.739 189.638 689.804 189.639L655.658 189.655C654.07 188.066 645.65 171.121 644.003 167.89C643.21 166.334 642.331 163.854 641.145 162.604C640.358 161.773 623.51 162.196 621.043 162.201H568.626L552.114 162.196C548.685 162.196 545.214 162.082 541.793 162.327C540.323 163.856 539.428 166.835 538.419 168.7C538.032 169.417 537.495 170.052 537.096 170.766C535.341 173.909 533.689 177.127 531.966 180.291C530.266 183.41 528.788 186.799 526.642 189.644L491.332 189.638L481.033 189.635C479.66 189.637 478.088 189.848 476.739 189.651C476.218 189.575 476.044 189.515 475.728 189.11L505.939 135.489C506.284 134.88 506.354 134.141 506.687 133.526C508.671 129.879 510.995 126.337 513.055 122.733C513.464 122.018 513.523 121.156 513.989 120.476C517.116 115.926 519.636 110.642 522.283 105.798C529.739 92.1592 537.525 78.6659 545.128 65.106C549.715 56.9294 554.09 48.5748 558.82 40.4844C559.3 39.6631 560.038 38.0617 560.841 37.6003ZM591.612 130.605L612.624 130.612C616.448 130.612 620.364 130.783 624.174 130.526C624.525 129.356 622.484 126.203 621.905 125.133C621.59 124.55 621.163 124.009 620.883 123.415C620.493 122.58 620.268 121.666 619.837 120.846L601.874 86.4122L596.221 75.4608C595.036 73.1411 593.934 70.741 592.622 68.4907C592.383 68.0818 592.184 67.7884 591.776 67.5345L591.165 67.5579C591.189 67.704 591.267 67.9526 591.252 68.0916C591.173 68.8422 566.899 114.399 564.301 119.413C563.146 121.642 559.004 128.273 558.885 130.436C562.129 131.041 566.022 130.625 569.349 130.623L591.612 130.605Z" fill="black"/>
<path d="M939.97 37.6001C946.068 37.2453 952.39 37.5646 958.507 37.5642L995.792 37.564L1109.87 37.566C1110.05 37.8854 1110.12 38.1648 1110.15 38.5269C1110.53 44.4046 1110.19 50.6929 1110.19 56.6333C1110.19 59.6818 1110.58 70.021 1109.97 72.4496L986.225 72.451C986.331 72.6049 986.421 72.7661 986.476 72.9454C986.809 74.0451 986.734 94.6112 986.556 97.0965C986.535 97.4028 986.427 97.6559 986.276 97.9213L1101.59 97.9414C1101.67 98.1295 1101.75 98.3209 1101.8 98.5198C1102.55 101.492 1102.12 110.359 1102.12 113.803C1102.12 118.36 1102.4 123.125 1102.07 127.663C1102.05 127.971 1101.94 128.225 1101.79 128.49C1081.35 128.792 1060.87 128.494 1040.43 128.495H986.233C986.337 128.649 986.425 128.81 986.478 128.989C986.846 130.226 986.742 151.633 986.558 154.362C986.537 154.66 986.435 154.903 986.29 155.161H1109.92C1110.37 156.27 1110.4 188.33 1109.92 189.645H939.759C940.049 189.037 940.002 188.365 940.011 187.707C940.144 177.58 940.021 167.434 940.021 157.305L940.027 97.1446L940.025 58.1707C940.025 51.3364 940.233 44.4241 939.97 37.6001Z" fill="black"/>
<path d="M274.231 136.495C275.273 134.409 274.051 123.674 273.926 120.645C273.759 116.571 273.638 112.43 273.591 108.351C273.546 104.337 273.683 100.159 273.881 96.1467C274.39 85.8977 276.103 74.5463 279.612 64.8824C280.148 63.4059 280.93 62.1203 281.507 60.6987C281.836 59.8923 281.883 58.9585 282.259 58.1783C282.596 57.4765 283.356 56.7487 283.779 56.0155C287.622 49.4704 293.594 44.4332 300.704 41.7411C303.201 40.7692 305.856 40.1138 308.384 39.2077C309.081 38.9579 309.979 39.1368 310.733 38.9784C320.349 36.9592 329.143 37.4375 338.845 37.0962L363.362 36.4377C367.419 36.3116 371.464 35.9688 375.527 35.9266C391.701 35.7986 407.874 36.3955 423.995 37.7157C425.481 37.8478 426.981 37.8639 428.463 38.0214C429.346 38.1152 430.21 38.3373 431.095 38.3927C432.465 38.4783 433.897 38.3834 435.254 38.5444C435.8 38.6092 436.248 38.9299 436.775 39.0526C437.942 39.3245 439.172 39.3695 440.352 39.6067C442.267 39.9921 444.349 40.8654 446.119 41.7022C447.568 42.3881 449.25 43.1259 450.571 44.0252C456.126 47.8068 460.062 54.0385 462.298 60.2509C463.737 64.2504 468.027 80.5513 466.332 84.1293C466.749 85.4118 466.958 89.2835 466.359 90.5273C466.293 90.664 466.283 90.6746 466.212 90.7887H421.651C422.252 89.6923 422.029 87.7805 421.692 86.6256C421.522 86.0497 421.359 85.3976 420.938 84.9553C420.972 84.6806 421.054 84.4825 420.919 84.2349C420.635 83.7093 420.611 82.9783 420.386 82.4032C419.728 80.7213 418.17 78.324 416.623 77.2757C415.836 76.7436 414.831 76.646 414.03 76.0815C412.023 74.6655 407.627 74.2394 405.225 74.0382C401.003 73.6847 396.598 73.887 392.36 73.8628L367.981 73.8815C358.32 73.9665 347.437 73.1477 337.944 74.8677C334.651 75.4642 329.875 76.8062 327.328 79.0705C326.492 79.8124 325.618 81.1071 324.984 82.0333C322.726 85.3291 321.405 94.3751 321.109 98.5558C320.989 100.248 321.109 101.959 321.027 103.654C320.886 106.609 320.498 109.529 320.437 112.505C320.379 115.207 320.664 117.926 320.807 120.623C321.072 125.658 321.219 130.669 322.233 135.631C323.212 140.436 324.761 145.691 329.074 148.565C332.323 150.733 336.936 151.811 340.75 152.385C347.537 153.406 354.186 153.128 361.004 153.331C364.789 153.443 368.578 153.794 372.365 153.834C377.732 153.891 383.056 153.591 388.409 153.558C395.65 153.514 403.03 153.799 410.157 152.326C413.717 151.59 417.582 150.065 419.658 146.92C421.537 144.075 422.477 140.184 422.632 136.814C422.693 135.473 422.544 133.958 422.859 132.652C423 132.072 423.202 131.874 423.685 131.587C428.69 131.288 433.826 131.546 438.847 131.547L468.264 131.549C468.773 132.735 468.597 134.362 468.687 135.643C468.912 138.88 468.732 141.818 468.578 145.041C468.168 153.634 467.232 162.139 463.986 170.196C462.159 174.735 459.447 178.091 456.042 181.537C455.985 181.541 455.927 181.544 455.87 181.549C455.012 181.63 452.318 183.665 451.204 184.211C445.132 187.186 438.529 188.61 431.854 189.442C425.808 190.195 419.752 189.973 413.666 189.974L388.959 189.977L346.72 189.973C339.544 189.971 332.305 190.17 325.135 189.943C323.631 189.895 316.402 189.388 315.448 188.927C314.148 188.299 308.718 187.805 306.848 187.368C292.856 184.092 283.841 178.35 278.564 164.514C277.239 161.041 276.125 157.089 275.674 153.39C275.504 152.014 275.273 146.994 274.781 146.132C275.402 144.911 275.263 138.047 274.864 136.668L274.231 136.495ZM274.232 136.495L274.866 136.668C275.264 138.047 275.403 144.911 274.782 146.132L274.67 146.085C273.907 144.882 274.762 138.548 274.232 136.495Z" fill="black"/>
<path d="M225.08 36.0683L244.817 36.0807C247.711 36.0815 250.991 36.3774 253.849 35.9863C253.716 36.3994 253.554 36.6578 253.24 36.9497C250.822 39.1851 248.171 41.2334 245.639 43.3386L232.191 54.5587L188.034 91.4929C184.794 94.2023 172.128 104.136 170.475 106.837C169.884 107.803 170.154 109.907 170.644 110.896C171.235 112.088 172.481 112.892 173.725 113.276C175.818 113.922 178.447 113.622 180.625 113.588C183.966 116.085 187.114 118.916 190.315 121.596L205.824 134.607C202.041 137.558 198.125 140.336 194.089 142.933C191.591 144.547 188.904 145.996 186.501 147.74C184.22 144.895 181.455 142.847 177.705 142.439C174.89 142.133 171.673 142.852 169.393 144.59L156.71 133.982C154.542 132.165 152.382 130.124 150.046 128.533C149.24 127.983 148.142 127.291 147.138 127.241C146.03 127.186 144.882 127.78 144.008 128.4C141.267 130.343 138.7 132.759 136.121 134.919L121.118 147.472L70.2828 189.964L21.2522 189.965L112.654 113.542C115.484 113.63 119.971 114.314 122.21 112.245C123.187 111.343 123.7 109.933 123.72 108.62C123.733 107.702 123.463 106.853 122.93 106.106C121.745 104.445 119.853 103.13 118.287 101.83C114.575 98.7504 110.426 95.7577 107.034 92.3474C108.672 91.7242 110.325 90.662 111.904 89.8707C115.085 88.2872 118.297 86.764 121.537 85.3024C122.805 84.736 124.294 83.9333 125.642 83.6447C127.767 85.96 130.749 88.021 133.184 90.052C136.815 93.0806 140.392 96.3935 144.207 99.1706C144.686 99.5193 145.11 99.7726 145.691 99.9L145.824 99.93C147.154 100.221 148.503 100.026 149.645 99.2664C151.653 97.9309 153.573 96.0354 155.436 94.4786L167.501 84.3888L210.731 48.2226C212.478 46.7628 224.398 37.2556 225.08 36.0683Z" fill="#0749FE"/>
<path d="M109.35 70.0449L109.452 70.009C111.797 69.1637 114.115 67.9517 116.414 66.9672C120.746 65.1263 125.113 63.371 129.515 61.7025C154.312 52.3665 180.153 45.9963 206.757 45.8506L188.663 60.9565C185.696 63.4342 182.323 65.8575 179.643 68.6077C164.197 70.6516 149.042 74.4813 134.483 80.019C131.658 81.0751 128.213 82.083 125.642 83.6447C124.293 83.9333 122.805 84.736 121.536 85.3024C118.297 86.764 115.085 88.2871 111.903 89.8706C110.325 90.662 108.672 91.7241 107.033 92.3474C87.5427 102.906 60.8973 120.83 52.1284 142.044C49.9056 147.421 48.6321 153.91 50.9586 159.474C45.748 163.4 40.8216 167.878 35.8266 172.087C32.9165 169.548 30.339 166.95 28.3404 163.616C24.2038 156.716 23.5966 148.515 25.5756 140.81C31.0501 119.497 55.9346 100.568 73.6521 89.2857C79.3302 85.67 85.214 82.5012 90.9949 79.0728C93.3046 78.1363 95.5795 76.7495 97.8105 75.613C101.614 73.6698 105.462 71.8134 109.35 70.0449Z" fill="#0AFE95"/>
<path d="M186.766 148.379C189.192 146.83 191.804 145.504 194.288 144.043C198.802 141.391 203.243 138.619 207.608 135.731C207.725 136.028 207.858 136.27 208.095 136.487C213.574 141.485 220.092 146.516 225.835 151.315L261.679 181.289C263.33 182.669 271.227 188.805 271.681 189.961C255.596 189.962 239.479 190.191 223.396 189.957C222.364 188.453 215.471 183.149 213.562 181.551C204.779 174.202 196.073 166.732 187.18 159.52C187.518 158.969 187.815 158.107 187.982 157.478C188.778 154.483 188.284 151.056 186.766 148.379Z" fill="#0749FE"/>
<path d="M238.574 54.3467C243.157 56.2966 248.444 63.353 250.271 67.8998C253.584 76.1441 252.617 85.0182 249.153 93.0463C241.62 110.513 223.158 125.5 207.607 135.732C203.242 138.62 198.801 141.392 194.287 144.044C191.803 145.505 189.19 146.831 186.765 148.38C188.283 151.057 188.777 154.483 187.981 157.479C187.814 158.108 187.517 158.97 187.179 159.521C186.431 160.967 185.53 162.216 184.31 163.303C181.907 165.428 178.742 166.49 175.539 166.246C172.334 166.016 169.354 164.523 167.255 162.097C165.176 159.662 164.156 156.501 164.421 153.314C164.736 149.612 166.625 146.906 169.394 144.59C171.674 142.852 174.891 142.133 177.706 142.44C181.456 142.847 184.221 144.895 186.502 147.74C188.905 145.996 191.592 144.547 194.09 142.933C198.126 140.336 202.042 137.558 205.825 134.607C217.66 125.664 233.438 110.112 235.564 94.9187C236.31 89.5948 235.241 84.3952 231.949 80.0786C228.562 75.6385 223.602 72.9185 218.431 71.0411C220.728 69.3886 238.064 55.3981 238.574 54.3467Z" fill="#FE0CDC"/>
<path d="M39.7283 35.96C43.1594 36.2416 46.6806 36.0778 50.1264 36.0775L68.6253 36.0547C82.4399 47.0729 95.4739 59.1086 109.351 70.045C105.463 71.8136 101.615 73.6699 97.8116 75.6131C95.5806 76.7497 93.3057 78.1365 90.996 79.0729C87.4901 75.6567 82.2717 71.7516 78.4116 68.52L52.0494 46.4631C48.556 43.5438 42.6259 39.1326 39.7283 35.96Z" fill="#0749FE"/>
<path d="M142.153 167.531L142.62 167.418L142.826 167.635L143.101 167.548L143.09 167.673C138.591 169.514 133.919 170.952 129.268 172.361C116.038 176.371 102.831 179.147 89.1472 181.064C88.9226 181.126 88.7286 181.08 88.5003 181.053L88.4229 180.743C89.3632 179.291 91.5304 177.901 92.8685 176.788C106.559 176.891 121.835 173.599 134.933 169.809C137.267 169.133 139.977 168.593 142.153 167.531Z" fill="#0AFE95"/>
<path d="M1147.1 38.8174C1155.7 36.8357 1164.28 42.2184 1166.2 50.8077C1168.13 59.397 1162.66 67.9046 1154.04 69.7596C1145.5 71.5952 1137.07 66.2184 1135.17 57.7184C1133.27 49.2183 1138.59 40.7786 1147.1 38.8174ZM1154.07 65.7238C1160.43 63.8752 1164.07 57.2342 1162.21 50.8994C1160.34 44.5646 1153.68 40.9412 1147.33 42.811C1140.99 44.6765 1137.37 51.3045 1139.23 57.6242C1141.09 63.9439 1147.73 67.568 1154.07 65.7238Z" fill="black"/>
<path d="M1149.93 44.9368C1150.71 44.9189 1151.49 44.8981 1152.25 45.0465C1153.19 45.2309 1155.42 45.6848 1155.94 46.5116C1156.64 47.6149 1158.3 48.2096 1158.59 49.5768C1158.7 50.0778 1158.64 50.647 1158.35 51.0806C1158.05 51.5324 1157.53 51.7758 1157.01 51.8791C1155.33 52.2129 1154.94 51.1249 1153.74 50.328C1152.73 49.6549 1151.53 49.1959 1150.3 49.4552C1149.33 49.6604 1148.56 50.2893 1148.05 51.1183C1147.24 52.4161 1147.02 54.3469 1147.39 55.8183C1147.65 56.8429 1148.28 57.7547 1149.21 58.2825C1150.22 58.8587 1151.43 58.9031 1152.54 58.6023C1153.86 58.2436 1154.29 57.1443 1154.93 56.0542C1155.43 55.7437 1156.33 55.8651 1156.92 55.8706C1157.36 55.8527 1157.79 55.8668 1158.23 55.9032C1158.57 56.2199 1158.7 56.5132 1158.75 56.9809C1158.89 58.1686 1158.02 59.5253 1157.33 60.4134C1155.87 62.2924 1154.14 62.7807 1151.84 63.0214C1149.54 63.2612 1147.04 62.98 1145.2 61.4786C1143.29 59.9229 1142.37 57.7637 1142.17 55.3459C1141.96 52.7161 1142.43 49.9665 1144.2 47.9179C1145.64 46.2472 1147.71 45.096 1149.93 44.9368Z" fill="black"/>
</svg>
